<svg xmlns="http://www.w3.org/2000/svg" width="512.4" height="512" viewBox="0 0 512.4 512"><linearGradient id="a" gradientUnits="userSpaceOnUse" x1="172" y1="472.48" x2="172" y2="-3.52" gradientTransform="matrix(1 0 0 -1.0756 84 508.215)"><stop offset="0" stop-color="#EAEAEA"/><stop offset="1" stop-color="#F4F4F4"/></linearGradient><path fill="url(#a)" d="M0 0h512v512H0z"/><path opacity=".1" d="M256 112c-79.53 0-144 64.47-144 144s64.47 144 144 144 144-64.47 144-144-64.47-144-144-144zm49.48 39.98c3.1.08 6.22.91 9.1 2.57 9.2 5.31 12.34 17.07 7.03 26.26-5.31 9.2-17.06 12.34-26.25 7.03-9.19-5.3-12.34-17.06-7.04-26.25 3.64-6.32 10.34-9.79 17.16-9.61zM256 172.48c7.73 0 15.21 1.07 22.31 3.04 1.25 7.73 5.84 14.84 13.15 19.06 7.3 4.21 15.74 4.63 23.05 1.87 14.22 13.98 23.47 32.99 24.81 54.17l-27.39.4c-2.53-28.69-26.6-51.18-55.93-51.18-8.45 0-16.47 1.88-23.65 5.23l-13.36-23.94c11.15-5.53 23.72-8.65 37.01-8.65zm-46.33 14.03l14.06 23.54C209.29 220.21 199.85 237 199.85 256c0 19 9.44 35.78 23.88 45.94l-14.06 23.55c-16.83-11.24-29.34-28.43-34.54-48.55 6.07-4.95 9.95-12.49 9.95-20.94 0-8.45-3.88-15.99-9.95-20.94 5.2-20.12 17.72-37.31 34.54-48.55zm-51.58 50.26c10.62 0 19.22 8.61 19.22 19.23 0 10.62-8.6 19.22-19.22 19.22s-19.23-8.6-19.23-19.22c-.01-10.62 8.6-19.23 19.23-19.23zm153.84 24.21l27.4.4c-1.35 21.18-10.6 40.19-24.81 54.17-7.31-2.76-15.75-2.35-23.05 1.87-7.31 4.23-11.89 11.34-13.15 19.06a83.33 83.33 0 0 1-22.31 3.04c-13.29 0-25.85-3.12-37.01-8.65l13.36-23.94c7.19 3.34 15.2 5.23 23.65 5.23 29.33 0 53.4-22.49 55.92-51.18zm-7.48 60.6c6.82-.18 13.51 3.29 17.16 9.61 5.31 9.2 2.16 20.95-7.03 26.25-9.2 5.31-20.95 2.16-26.25-7.04-5.31-9.19-2.16-20.94 7.04-26.25 2.86-1.66 5.98-2.49 9.08-2.57z"/><g fill="#FFF"><path opacity=".3" d="M256 256L108.2 512H512V256H256z"/><path opacity=".15" d="M0 0v512h108.2l76.39-132.31L256 256l-68.91-120-.19.32L108.2 0H0z"/></g></svg>